:SAMPLES-PER-SECOND 30
:FULLY-SPECIFIED
:DEGREES
338
root  -12.9379 39.2836 -1.88614 0.429657 52.0831 3.44098
RightUpLeg  -11.3905 -2.58665 -9.42405
RightLeg  34.2861 0.0852838 -0.182205
RightFoot  -13.9054 -0.0686902 1.1401
RightToes  -4.65661e-009 0 -3.6325e-017
Spine  7.54385 -1.1634 -3.48338
Spine1  3.97702 -1.66981 -0.252959
HEad  -11.7366 15.9167 -9.64211
LeftShoulder1  -0.31698 4.334 -32.0296
LeftArm  16.9451 -2.77417 -48.308
LeftForeArm  34.0542 -49.3239 -10.4664
LeftHand  -0.0293504 5.17096 1.07996
RightShoulder  -0.660469 -5.47686 26.7867
RightArm  27.7922 -22.6874 39.953
RightForeArm  5.22281 22.3308 4.70258
RightHand  -0.10596 4.55766 -1.51842
LeftUpLeg  -1.84498 5.46243 -7.14519
LeftLeg  16.2317 8.01464 1.54614
LeftFoot  -11.8866 0.110875 8.25959
LeftToes  9.86798e-010 -1.28139e-010 1.4132e-011
339
root  -11.7605 39.3185 -1.56468 0.161957 57.6021 2.97006
RightUpLeg  -14.8558 -3.95689 -6.62981
RightLeg  32.6594 -2.45575 -1.91802
RightFoot  -13.2623 -0.0694883 1.21399
RightToes  -4.65661e-009 0 -3.6325e-017
Spine  7.55767 -1.51938 -3.21096
Spine1  4.43169 -2.02118 -0.00949546
HEad  -11.7906 14.1524 -8.7302
LeftShoulder1  -0.265896 4.21583 -31.2307
LeftArm  16.39 -3.29227 -49.375
LeftForeArm  34.3685 -50.2095 -10.8221
LeftHand  -0.0319476 4.4945 1.09971
RightShoulder  -0.657758 -5.46937 26.7715
RightArm  26.6397 -22.1105 39.4278
RightForeArm  4.61141 24.4351 4.9661
RightHand  -0.174886 4.59612 -2.32443
LeftUpLeg  0.971368 3.7592 -7.45207
LeftLeg  14.4091 4.54916 1.12842
LeftFoot  -12.2643 0.149097 9.36704
LeftToes  9.86798e-010 -1.28139e-010 1.4132e-011
340
root  -10.5192 39.2655 -1.23999 -0.372986 62.5503 2.81287
RightUpLeg  -17.3594 -3.89119 -4.74974
RightLeg  28.756 -5.02803 -3.2069
RightFoot  -12.3731 -0.0724418 1.15978
RightToes  -4.65661e-009 0 -3.6325e-017
Spine  8.19624 -1.68384 -3.26326
Spine1  4.62272 -2.30744 0.672877
HEad  -11.7277 12.6432 -8.68727
LeftShoulder1  -0.2643 4.20636 -31.4757
LeftArm  16.0203 -3.6292 -49.3819
LeftForeArm  34.535 -51.4043 -11.3361
LeftHand  -0.0319322 4.62216 1.16194
RightShoulder  -0.651242 -5.45535 26.6746
RightArm  24.8569 -20.9914 38.9155
RightForeArm  5.42855 25.5027 5.18492
RightHand  -0.178867 4.43669 -2.39651
LeftUpLeg  4.25858 3.10932 -7.71413
LeftLeg  13.0895 0.972863 1.05064
LeftFoot  -13.3304 0.252147 9.8258
LeftToes  9.86798e-010 -1.28139e-010 1.4132e-011
341
root  -9.19964 39.1396 -0.909411 -1.03528 66.7604 2.40826
RightUpLeg  -19.225 -3.6184 -3.47558
RightLeg  22.5541 -5.61747 -2.78849
RightFoot  -10.8262 -0.081059 1.26351
RightToes  -4.65661e-009 0 -3.6325e-017
Spine  8.14919 -1.80723 -2.43989
Spine1  5.47163 -2.31377 0.494698
HEad  -11.8624 10.6468 -8.25214
LeftShoulder1  -0.322652 4.35504 -31.7831
LeftArm  15.7795 -4.229 -49.373
LeftForeArm  34.3564 -51.8149 -11.5412
LeftHand  -0.0369344 4.07101 1.41474
RightShoulder  -0.64121 -5.41589 26.8293
RightArm  23.7794 -19.0366 38.4471
RightForeArm  5.69268 25.4191 5.14247
RightHand  -0.157429 4.5885 -2.12269
LeftUpLeg  7.29939 3.45227 -7.31315
LeftLeg  12.4105 -2.96544 0.590316
LeftFoot  -14.3244 0.378014 11.1707
LeftToes  9.86798e-010 -1.28139e-010 1.4132e-011
342
root  -7.79858 38.9301 -0.548788 -0.961792 70.5523 2.71149
RightUpLeg  -20.466 -3.60485 -3.00241
RightLeg  15.058 -3.9302 -1.45187
RightFoot  -9.78306 -0.103863 2.91304
RightToes  -4.65661e-009 0 -3.6325e-017
Spine  7.45386 -1.82669 -2.24774
Spine1  6.81274 -2.35567 0.879553
HEad  -12.0992 9.12395 -8.23376
LeftShoulder1  -0.281071 4.2437 -31.8583
LeftArm  14.6823 -4.0766 -49.5599
LeftForeArm  34.4554 -51.8587 -11.5533
LeftHand  -0.0367708 3.95241 1.33075
RightShoulder  -0.657336 -5.45634 26.9727
RightArm  23.6373 -15.8613 38.2982
RightForeArm  5.74075 23.2086 4.72604
RightHand  -0.0973457 4.57521 -1.40845
LeftUpLeg  10.2126 3.50631 -7.0996
LeftLeg  12.1578 -6.09963 0.424711
LeftFoot  -15.7947 0.558542 11.8571
LeftToes  9.86798e-010 -1.28139e-010 1.4132e-011
343
root  -6.31091 38.6349 -0.174002 -0.726044 73.6749 3.29495
RightUpLeg  -20.9591 -4.11855 -2.72154
RightLeg  7.44386 -1.29175 -0.525429
RightFoot  -10.033 -0.12989 5.36717
RightToes  -4.65661e-009 0 -3.6325e-017
Spine  7.69162 -1.80932 -1.70382
Spine1  6.52325 -2.22477 0.734002
HEad  -11.4539 7.84943 -7.76434
LeftShoulder1  -0.286495 4.26531 -31.491
LeftArm  13.9111 -2.97803 -49.6183
LeftForeArm  34.4351 -51.3585 -11.3269
LeftHand  -0.0341957 4.20162 1.56865
RightShoulder  -0.630683 -5.37381 27.0141
RightArm  22.5601 -13.0074 38.0851
RightForeArm  7.26047 20.1355 4.71167
RightHand  -0.00207861 4.10358 -0.310396
LeftUpLeg  13.155 3.53131 -6.8228
LeftLeg  12.4099 -8.36168 0.359356
LeftFoot  -17.4329 0.763528 12.331
LeftToes  9.86798e-010 -1.28139e-010 1.4132e-011
344
root  -4.7533 38.3233 0.225158 -0.80542 76.0505 3.98166
RightUpLeg  -20.8002 -4.28913 -2.59632
RightLeg  2.07948 0.17406 -0.331925
RightFoot  -9.96322 -0.147595 6.63075
RightToes  -4.65661e-009 0 -3.6325e-017
Spine  7.7261 -1.45783 -1.60687
Spine1  7.10322 -2.04787 1.54406
HEad  -10.9943 6.60225 -7.78473
LeftShoulder1  -0.285428 4.25895 -31.6697
LeftArm  13.3716 -2.27734 -49.4077
LeftForeArm  33.9314 -49.7132 -10.638
LeftHand  -0.0303525 4.69109 2.11538
RightShoulder  -0.640325 -5.39081 27.2283
RightArm  19.4934 -9.70456 37.6528
RightForeArm  8.6194 16.2685 5.45574
RightHand  -0.0594604 3.90274 -1.00291
LeftUpLeg  16.7114 3.53911 -6.31112
LeftLeg  12.572 -9.9735 0.159551
LeftFoot  -18.7845 0.898832 12.039
LeftToes  9.86798e-010 -1.28139e-010 1.4132e-011
345
root  -3.10261 37.9519 0.636766 0.535004 78.3032 5.38739
RightUpLeg  -21.6378 -4.39294 -2.61331
RightLeg  1.33216 0.600562 -0.210748
RightFoot  -10.0377 -0.153152 7.06989
RightToes  -4.65661e-009 0 -3.6325e-017
Spine  7.20155 -1.28542 -1.08362
Spine1  7.24092 -1.85982 1.62908
HEad  -10.3683 5.62275 -7.68171
LeftShoulder1  -0.293995 4.27536 -31.9757
LeftArm  13.5955 -1.57332 -48.3694
LeftForeArm  33.1222 -47.262 -9.71897
LeftHand  -0.0286868 4.33254 1.2456
RightShoulder  -0.6489 -5.41229 27.3001
RightArm  14.7595 -6.78623 37.5527
RightForeArm  11.549 12.1571 5.95267
RightHand  -0.0824634 4.4721 -1.25747
LeftUpLeg  18.9837 2.58129 -5.9117
LeftLeg  14.0718 -11.3995 -0.611538
LeftFoot  -19.9928 0.961871 11.0939
LeftToes  9.86798e-010 -1.28139e-010 1.4132e-011
